# xmcd
#
# Track frame offsets:
#	150
#	11340
#	43478
#	55154
#	65126
#	79316
#	94098
#	109080
#	129187
#	147282
#	160816
#	210173
#	228597
#	243144
#	258126
#	273548
#
# Disc length: 4351 seconds
#
# Revision: 2
# Processed by: cddbd v1.4PL0 Copyright (c) Steve Scherf et al.
# Submitted via: EZCDDA 4.3.2
#
DISCID=d810fd10
DTITLE=Doors - The best of the Doors
DYEAR=1900
DGENRE=
TTITLE0=Break on through
TTITLE1=Light my fire
TTITLE2=The crystal ship
TTITLE3=People are strange
TTITLE4=Strange days
TTITLE5=Love me two times
TTITLE6=Alabama song
TTITLE7=Five to one
TTITLE8=Waiting for the sun
TTITLE9=Spanish caravan
TTITLE10=When the music's over
TTITLE11=Roadhouse blues
TTITLE12=Touch me
TTITLE13=Love her madly
TTITLE14=The unknown soldier
TTITLE15=The end
EXTD=
EXTT0=
EXTT1=
EXTT2=
EXTT3=
EXTT4=
EXTT5=
EXTT6=
EXTT7=
EXTT8=
EXTT9=
EXTT10=
EXTT11=
EXTT12=
EXTT13=
EXTT14=
EXTT15=
PLAYORDER=
